<?xml version="1.0" encoding="UTF-8"?>
<svg width="32px" height="32px" viewBox="0 0 32 32" version="1.1" xmlns="http://www.w3.org/2000/svg" xmlns:xlink="http://www.w3.org/1999/xlink">
    <title>取消镂空</title>
    <defs>
        <filter id="filter-1">
            <feColorMatrix in="SourceGraphic" type="matrix" values="0 0 0 0 0.800000 0 0 0 0 0.800000 0 0 0 0 0.800000 0 0 0 1.000000 0"></feColorMatrix>
        </filter>
    </defs>
    <g id="页面-1" stroke="none" stroke-width="1" fill="none" fill-rule="evenodd">
        <g id="logo上传" transform="translate(-698.000000, -287.000000)">
            <g id="系统控件/面性图标/取消" transform="translate(0.000000, 282.000000)" filter="url(#filter-1)">
                <g transform="translate(698.000000, 5.000000)" id="取消镂空">
                    <rect id="矩形" x="0" y="0" width="32" height="32"></rect>
                    <path d="M16,0 C24.8195122,0 32,7.18048779 32,16 C32,24.8195122 24.8195122,32 16,32 C7.18048779,32 0,24.8195122 0,16 C0,7.18048779 7.18048779,0 16,0 Z M10.3624161,10.3686007 C9.87919463,10.8600683 9.87919463,11.5972696 10.3624161,12.0887372 L14.2281879,16.0204778 L10.3624161,19.9522184 C9.87919463,20.443686 9.87919463,21.1808873 10.3624161,21.6723549 C10.6040268,21.9180887 10.9261745,22 11.2483221,22 C11.5704698,22 11.8926174,21.9180888 12.1342282,21.6723549 L16,17.7406143 L19.8657718,21.6723549 C20.1073826,21.9180887 20.4295302,22 20.7516779,22 C21.0738256,22 21.3959732,21.9180888 21.6375839,21.6723549 C22.1208054,21.1808873 22.1208054,20.443686 21.6375839,19.9522184 L17.6107383,16.1023891 L21.4765101,12.1706485 C21.9597316,11.6791809 21.9597316,10.8600683 21.4765101,10.3686007 C20.9932886,9.87713311 20.2684564,9.87713311 19.7852349,10.3686007 L15.9194631,14.3003413 L12.0536913,10.3686007 C11.5704698,9.87713311 10.8456376,9.87713311 10.3624161,10.3686007 Z" id="形状结合" fill="#333333" fill-rule="nonzero"></path>
                </g>
            </g>
        </g>
    </g>
</svg>