<?xml version="1.0" encoding="UTF-8"?>
<svg width="32px" height="32px" viewBox="0 0 32 32" version="1.1" xmlns="http://www.w3.org/2000/svg" xmlns:xlink="http://www.w3.org/1999/xlink">
    <title>警告镂空</title>
    <g id="页面-1" stroke="none" stroke-width="1" fill="none" fill-rule="evenodd">
        <g id="未通过原因" transform="translate(-329.000000, -367.000000)" fill="#E60127" fill-rule="nonzero">
            <g id="警告镂空" transform="translate(329.000000, 367.000000)">
                <path d="M16,0 C24.8195122,0 32,7.18048779 32,16 C32,24.8195122 24.8195122,32 16,32 C7.18048779,32 0,24.8195122 0,16 C0,7.18048779 7.18048779,0 16,0 Z M16,20.8991119 C15.1387372,20.8991119 14.4405458,21.5973033 14.4405458,22.4585661 C14.4405458,23.3198289 15.1387372,24.0180203 16,24.0180203 C16.8612628,24.0180203 17.5594542,23.3198289 17.5594542,22.4585661 C17.5594542,21.5973033 16.8612628,20.8991119 16,20.8991119 Z M16,7.98197969 C15.36,7.98197969 14.8,8.52197968 14.8,9.13912255 L14.8,17.6248368 C14.8,18.2419797 15.36,18.7819797 16,18.7819797 C16.64,18.7819797 17.2,18.2419797 17.2,17.6248368 L17.2,9.13912255 C17.2,8.52197968 16.64,7.98197969 16,7.98197969 Z" id="形状结合"></path>
            </g>
        </g>
    </g>
</svg>