<?xml version="1.0" encoding="UTF-8"?>
<svg width="110px" height="110px" viewBox="0 0 110 110" version="1.1" xmlns="http://www.w3.org/2000/svg" xmlns:xlink="http://www.w3.org/1999/xlink">
    <title>确认镂空</title>
    <g id="页面-1" stroke="none" stroke-width="1" fill="none" fill-rule="evenodd">
        <g id="提交确认" transform="translate(-315.000000, -238.000000)" fill="#2CCDA7">
            <g id="确认镂空" transform="translate(315.000000, 238.000000)">
                <path d="M55,0 C85.3170732,0 110,24.6829268 110,55 C110,85.3170732 85.3170732,110 55,110 C24.6829268,110 0,85.3170732 0,55 C0,24.6829268 24.6829268,0 55,0 Z M78.1800767,34.9325776 L46.8342912,66.541773 L31.2931034,51.0005852 C29.7126437,49.4201254 27.341954,49.4201254 25.7614943,51.0005852 C24.1810345,52.581045 24.1810345,54.9517346 25.7614943,56.5321944 L44.2001917,74.9708917 C44.9904215,75.7611216 46.0440613,76.0245316 47.0977011,76.0245316 C48.151341,76.0245316 49.2049809,75.7611217 49.9952108,74.9708917 L84.2385057,40.7275967 C85.8189655,39.1471369 85.8189655,36.7764473 84.2385057,35.1959875 C82.3946361,33.6155277 79.7605364,33.6155277 78.1800767,34.9325776 Z" id="形状结合"></path>
            </g>
        </g>
    </g>
</svg>